<svg width="831" height="700" viewBox="0 0 831 700" fill="none" xmlns="http://www.w3.org/2000/svg">
<circle cx="481" cy="350" r="350" fill="#2E186A" fill-opacity="0.8"/>
<rect width="143.14" height="175.65" transform="matrix(0.991256 0.131956 -0.145119 0.989414 414.934 482.692)" fill="#2E186A"/>
<rect width="132.275" height="160.876" transform="matrix(0.996423 -0.0845088 0.0566175 0.998396 378.432 483.375)" fill="white"/>
<path fill-rule="evenodd" clip-rule="evenodd" d="M510.141 470.536L378.338 481.715C377.45 481.79 376.773 482.595 376.825 483.512L385.933 644.13C385.985 645.047 386.747 645.729 387.635 645.654L519.437 634.476C520.325 634.4 521.003 633.596 520.951 632.679L511.843 472.06C511.791 471.143 511.029 470.461 510.141 470.536ZM508.72 473.994L517.64 631.291L389.054 642.197L380.134 484.899L508.72 473.994Z" fill="#2E186A"/>
<path fill-rule="evenodd" clip-rule="evenodd" d="M388.12 505.206C389.464 505.092 390.617 506.125 390.695 507.513C390.771 508.86 389.807 510.046 388.521 510.219L388.404 510.232L364.047 512.292C362.703 512.406 361.55 511.373 361.471 509.985C361.395 508.638 362.36 507.452 363.645 507.279L363.763 507.266L388.12 505.206Z" fill="#2E186A"/>
<path fill-rule="evenodd" clip-rule="evenodd" d="M389.629 531.847C390.973 531.73 392.128 532.761 392.209 534.148C392.288 535.495 391.326 536.683 390.041 536.858L389.923 536.872L365.55 538.985C364.206 539.102 363.051 538.071 362.97 536.684C362.891 535.337 363.853 534.149 365.138 533.974L365.256 533.96L389.629 531.847Z" fill="#2E186A"/>
<path fill-rule="evenodd" clip-rule="evenodd" d="M391.132 558.54C392.476 558.426 393.629 559.459 393.708 560.847C393.784 562.194 392.82 563.38 391.534 563.553L391.416 563.566L367.06 565.626C365.716 565.74 364.563 564.707 364.484 563.319C364.408 561.972 365.372 560.786 366.658 560.613L366.776 560.601L391.132 558.54Z" fill="#2E186A"/>
<path fill-rule="evenodd" clip-rule="evenodd" d="M392.647 585.18C393.991 585.067 395.144 586.1 395.222 587.487C395.299 588.834 394.334 590.021 393.049 590.193L392.931 590.206L368.574 592.267C367.23 592.38 366.077 591.347 365.999 589.96C365.923 588.613 366.887 587.426 368.173 587.254L368.29 587.241L392.647 585.18Z" fill="#2E186A"/>
<path fill-rule="evenodd" clip-rule="evenodd" d="M394.211 611.837C395.554 611.722 396.709 612.753 396.789 614.141C396.867 615.487 395.904 616.675 394.618 616.849L394.501 616.862L370.076 618.96C368.732 619.075 367.578 618.044 367.498 616.656C367.42 615.309 368.383 614.122 369.669 613.948L369.786 613.935L394.211 611.837Z" fill="#2E186A"/>
<path fill-rule="evenodd" clip-rule="evenodd" d="M455.496 519.979C456.384 519.904 457.146 520.586 457.198 521.503C457.248 522.388 456.619 523.167 455.778 523.289L455.684 523.3L409.041 527.252C408.153 527.328 407.391 526.645 407.339 525.728C407.289 524.844 407.918 524.064 408.759 523.942L408.853 523.932L455.496 519.979Z" fill="#FE7624"/>
<path fill-rule="evenodd" clip-rule="evenodd" d="M474.692 526.872C475.58 526.797 476.342 527.48 476.393 528.397C476.443 529.281 475.814 530.061 474.973 530.182L474.879 530.193L428.185 534.13C427.297 534.205 426.535 533.522 426.484 532.605C426.434 531.72 427.063 530.941 427.904 530.819L427.998 530.809L474.692 526.872Z" fill="#FE7624"/>
<path fill-rule="evenodd" clip-rule="evenodd" d="M419.017 531.557C419.905 531.481 420.668 532.162 420.721 533.079C420.772 533.963 420.144 534.744 419.303 534.867L419.209 534.878L409.704 535.695C408.816 535.771 408.053 535.09 408 534.173C407.949 533.288 408.577 532.508 409.418 532.385L409.512 532.374L419.017 531.557Z" fill="#FE7624"/>
<path fill-rule="evenodd" clip-rule="evenodd" d="M427.391 561.166C428.279 561.089 429.043 561.769 429.096 562.686C429.148 563.57 428.521 564.351 427.68 564.475L427.586 564.486L411.394 565.894C410.506 565.971 409.742 565.29 409.688 564.373C409.637 563.489 410.263 562.708 411.105 562.584L411.199 562.573L427.391 561.166Z" fill="#FE7624"/>
<path fill-rule="evenodd" clip-rule="evenodd" d="M439.49 550.473C440.378 550.397 441.141 551.079 441.193 551.996C441.244 552.88 440.616 553.66 439.775 553.783L439.68 553.794L410.826 556.255C409.938 556.331 409.175 555.649 409.123 554.732C409.072 553.847 409.7 553.068 410.542 552.945L410.636 552.934L439.49 550.473Z" fill="#FE7624"/>
<path fill-rule="evenodd" clip-rule="evenodd" d="M426.223 540.765C427.111 540.691 427.873 541.374 427.924 542.291C427.973 543.175 427.344 543.954 426.503 544.075L426.408 544.086L410.233 545.44C409.344 545.515 408.583 544.831 408.532 543.914C408.483 543.03 409.112 542.251 409.953 542.13L410.048 542.119L426.223 540.765Z" fill="#FE7624"/>
<path fill-rule="evenodd" clip-rule="evenodd" d="M460.321 537.845C461.209 537.77 461.971 538.452 462.024 539.369C462.074 540.253 461.446 541.033 460.605 541.155L460.511 541.166L433.557 543.464C432.669 543.54 431.907 542.858 431.854 541.941C431.804 541.056 432.432 540.277 433.273 540.154L433.367 540.143L460.321 537.845Z" fill="#FE7624"/>
<path fill-rule="evenodd" clip-rule="evenodd" d="M499.911 521.164L494.056 530.543L464.123 626.932L469.482 628.612L499.432 532.17L499.911 521.164Z" fill="#FE7624"/>
<path fill-rule="evenodd" clip-rule="evenodd" d="M482.201 601.512C483.029 601.752 483.509 602.623 483.308 603.487L483.283 603.582L476.425 627.073C476.169 627.948 475.294 628.466 474.455 628.256L474.365 628.231L464.668 625.191C463.815 624.924 463.349 623.986 463.628 623.097C463.896 622.24 464.759 621.741 465.585 621.946L465.677 621.972L473.797 624.517L480.174 602.68C480.425 601.818 481.279 601.301 482.109 601.488L482.201 601.512Z" fill="#5D21D1"/>
<path fill-rule="evenodd" clip-rule="evenodd" d="M484.93 564.127L487.891 565.055C489.167 565.455 490.521 564.712 490.921 563.435L498.392 540.137C498.809 538.808 498.121 537.424 496.896 537.04L493.936 536.112C492.66 535.712 491.306 536.456 490.906 537.732L483.435 561.03C483.018 562.36 483.706 563.743 484.93 564.127Z" fill="#5D21D1"/>
<path fill-rule="evenodd" clip-rule="evenodd" d="M478.875 589.84C479.691 590.12 480.131 591.013 479.892 591.868L479.863 591.962L475.656 604.31C475.355 605.192 474.426 605.672 473.58 605.382C472.765 605.102 472.325 604.209 472.564 603.354L472.593 603.26L476.8 590.912C477.1 590.03 478.03 589.55 478.875 589.84Z" fill="#5D21D1"/>
<path fill-rule="evenodd" clip-rule="evenodd" d="M480.406 490.754L475.812 500.762L458.445 600.155L463.987 601.075L481.353 501.681L480.406 490.754Z" fill="#FE7624"/>
<path fill-rule="evenodd" clip-rule="evenodd" d="M452.709 366.747L424.344 389.748C420.424 392.927 414.709 392.421 411.584 388.622L411.079 387.998C407.953 384.199 408.602 378.538 412.522 375.358L440.887 352.358L452.709 366.747Z" fill="white"/>
<path fill-rule="evenodd" clip-rule="evenodd" d="M439.939 351.205L411.574 374.205C407.042 377.881 406.256 384.394 409.78 388.828L410.387 389.578C414.043 394.023 420.716 394.613 425.293 390.901L453.658 367.9C454.315 367.368 454.423 366.42 453.9 365.783L442.078 351.394C441.554 350.756 440.597 350.672 439.939 351.205ZM440.645 354.476L450.572 366.559L423.396 388.595C420.133 391.241 415.376 390.82 412.773 387.657L412.276 387.042C409.668 383.871 410.206 379.159 413.471 376.511L440.645 354.476Z" fill="#2E186A"/>
<path fill-rule="evenodd" clip-rule="evenodd" d="M500.787 371.796C523.235 357.941 530.496 328.991 517.006 307.133C503.516 285.275 474.383 278.787 451.935 292.641C429.488 306.495 422.226 335.445 435.716 357.303C449.206 379.161 478.339 385.65 500.787 371.796Z" fill="white"/>
<path fill-rule="evenodd" clip-rule="evenodd" d="M451.153 291.371C427.985 305.67 420.49 335.549 434.413 358.108C448.335 380.667 478.403 387.364 501.571 373.065C524.739 358.767 532.234 328.888 518.311 306.329C504.389 283.769 474.321 277.073 451.153 291.371ZM452.72 293.911C474.448 280.501 502.646 286.782 515.703 307.938C528.76 329.095 521.732 357.116 500.004 370.526C478.277 383.935 450.078 377.655 437.021 356.498C423.964 335.342 430.992 307.32 452.72 293.911Z" fill="#2E186A"/>
<path fill-rule="evenodd" clip-rule="evenodd" d="M493.629 360.198C509.499 350.404 514.632 329.937 505.096 314.485C495.559 299.032 474.963 294.445 459.094 304.239C443.224 314.033 438.09 334.5 447.627 349.952C457.164 365.405 477.76 369.992 493.629 360.198Z" fill="#FE7624"/>
<path fill-rule="evenodd" clip-rule="evenodd" d="M457.406 140.818L340.704 315.839C332.785 327.715 316.345 330.682 304.016 322.461L174.435 236.058L319.833 18L449.414 104.403C461.779 112.648 465.325 128.942 457.406 140.818Z" fill="#5D21D1"/>
<path fill-rule="evenodd" clip-rule="evenodd" d="M351.9 181.319C351.9 181.319 348.663 190.891 339.634 187.461C339.634 187.461 340.985 179.271 351.9 181.319Z" fill="white"/>
<path fill-rule="evenodd" clip-rule="evenodd" d="M319.262 186.585C320.468 186.069 321.566 185.335 322.594 184.555C323.31 186.449 324.821 188.141 326.943 189.067C329.276 190.134 331.775 190.04 333.598 189.057C335.891 191.172 339.106 194.342 339.864 196.021C340.225 196.848 341.332 197.244 342.345 196.942C343.323 196.617 343.839 195.69 343.478 194.863C342.371 192.414 338.275 188.51 336.03 186.475C336.075 186.407 336.097 186.373 336.107 186.282C337.44 183.066 335.485 179.073 331.716 177.343C330.515 176.786 329.238 176.57 328.046 176.606C329.301 172.898 329.38 168.747 327.923 164.843C324.757 156.426 315.765 152.484 307.818 156.031C299.871 159.579 295.977 169.299 299.109 177.692C302.288 186.166 311.279 190.109 319.262 186.585Z" fill="white"/>
<path fill-rule="evenodd" clip-rule="evenodd" d="M357.918 256.69L330.955 283.581L305.023 279.779L280.476 255.787L318.315 218.065L357.918 256.69Z" fill="#FEBA91"/>
<path fill-rule="evenodd" clip-rule="evenodd" d="M296.782 258.329C296.293 257.865 296.247 257.122 296.666 256.636L296.714 256.583L318.409 234.245C318.879 233.761 319.671 233.758 320.179 234.238C320.668 234.701 320.714 235.444 320.295 235.931L320.247 235.984L298.552 258.322C298.082 258.806 297.29 258.809 296.782 258.329Z" fill="white"/>
<path fill-rule="evenodd" clip-rule="evenodd" d="M300.9 262.198C300.411 261.735 300.365 260.992 300.784 260.505L300.832 260.452L322.527 238.114C322.997 237.63 323.789 237.627 324.297 238.108C324.786 238.571 324.832 239.314 324.413 239.801L324.365 239.854L302.67 262.192C302.2 262.676 301.408 262.679 300.9 262.198Z" fill="white"/>
<path fill-rule="evenodd" clip-rule="evenodd" d="M305.309 266.164C304.82 265.7 304.775 264.957 305.194 264.471L305.242 264.418L318.137 251.168C318.607 250.684 319.4 250.682 319.907 251.163C320.396 251.627 320.441 252.37 320.022 252.856L319.973 252.909L307.079 266.159C306.608 266.642 305.816 266.644 305.309 266.164Z" fill="white"/>
<path fill-rule="evenodd" clip-rule="evenodd" d="M304.601 279.273C304.123 278.799 304.095 278.055 304.526 277.579L304.576 277.528L315.557 266.766C316.028 266.305 316.794 266.31 317.29 266.765L317.344 266.817L331.625 281.472C332.113 281.972 332.11 282.753 331.619 283.216C331.146 283.663 330.392 283.651 329.901 283.201L329.848 283.15L316.465 269.417L306.372 279.308C305.908 279.764 305.154 279.765 304.656 279.324L304.601 279.273Z" fill="white"/>
<path fill-rule="evenodd" clip-rule="evenodd" d="M197.968 251.75C198.342 251.19 199.117 251.05 199.699 251.438C200.26 251.812 200.437 252.541 200.114 253.095L200.076 253.156L195.514 259.997L196.071 260.474C196.484 260.829 196.927 261.216 197.399 261.633L197.856 262.039C200.373 264.279 203.121 266.858 206.008 269.74C214.26 277.977 221.991 286.997 228.482 296.523C238.017 310.514 244.036 324.385 245.495 337.751C247.251 353.836 242.307 368.557 229.668 381.413L228.067 383.044C211.134 400.309 198.781 413.582 186.386 428.339L185.999 428.801C168.678 449.463 154.88 469.092 145.097 487.894C133.577 510.035 128.013 530.362 129.254 548.611C130.648 569.109 140.625 586.747 160.209 601.261C180.129 616.035 196.02 622.404 208.238 621.546C218.341 620.837 225.738 615.194 230.853 605.567C234.363 598.962 236.611 590.835 237.827 581.918C238.338 578.169 238.63 574.534 238.751 571.157L238.772 570.525C238.794 569.801 238.806 569.126 238.81 568.505L238.812 567.985C238.812 567.716 238.81 567.474 238.808 567.262L238.8 566.855C238.78 566.174 239.324 565.624 240.015 565.627C240.706 565.631 241.283 566.186 241.304 566.868L241.31 567.186C241.314 567.396 241.316 567.637 241.317 567.906L241.317 568.07C241.317 569.027 241.298 570.119 241.255 571.33C241.13 574.783 240.832 578.496 240.309 582.329C239.059 591.502 236.74 599.885 233.081 606.771C227.608 617.071 219.529 623.235 208.502 624.009C195.568 624.917 179.121 618.326 158.748 603.215C138.563 588.256 128.199 569.934 126.754 548.691C125.479 529.939 131.156 509.204 142.86 486.708C152.732 467.735 166.624 447.972 184.046 427.189L184.823 426.263C197.523 411.174 210.218 397.589 227.84 379.664C239.976 367.319 244.683 353.305 243.005 337.931C241.596 325.027 235.737 311.525 226.418 297.85C220.028 288.472 212.4 279.573 204.256 271.444C201.541 268.734 198.953 266.297 196.569 264.163L196.213 263.845C195.491 263.202 194.832 262.627 194.242 262.122L193.567 261.548L193.078 261.141C192.593 260.746 192.464 260.074 192.764 259.559L192.802 259.498L197.968 251.75Z" fill="#5D21D1"/>
<path fill-rule="evenodd" clip-rule="evenodd" d="M201.169 256.083L197.424 261.7C196.86 262.546 195.706 262.754 194.828 262.168L191.772 260.131C190.894 259.545 190.643 258.4 191.207 257.554L194.952 251.938C195.516 251.092 196.669 250.884 197.547 251.469L200.603 253.507C201.482 254.092 201.71 255.271 201.169 256.083Z" fill="#FE7624"/>
<path fill-rule="evenodd" clip-rule="evenodd" d="M242.585 560.78C242.044 556.264 227.313 545.024 226.038 561.623C224.764 578.222 240.485 575.801 241.903 568.194C243.3 560.621 242.585 560.78 242.585 560.78Z" fill="#FE7624"/>
<path fill-rule="evenodd" clip-rule="evenodd" d="M162.469 455.969C163.277 456.114 163.844 456.854 163.769 457.643L163.75 457.787L163.674 458.322L163.571 459.08C163.423 460.2 163.262 461.51 163.096 462.995L162.991 463.948C162.574 467.799 162.198 472.083 161.897 476.731L161.859 477.314C160.91 492.352 160.921 508.03 162.272 523.549C164.976 554.591 172.68 580.987 186.565 600.144C203.664 623.735 229.348 635.165 265.088 631.937C265.927 631.861 266.692 632.472 266.798 633.302C266.904 634.132 266.31 634.866 265.472 634.941C228.641 638.268 201.859 626.35 184.095 601.841C169.821 582.147 161.97 555.248 159.223 523.703C157.857 508.023 157.846 492.2 158.804 477.023L158.88 475.85C159.191 471.189 159.575 466.896 160 463.041L160.053 462.562C160.186 461.379 160.315 460.305 160.437 459.346L160.601 458.102L160.731 457.181C160.855 456.361 161.633 455.819 162.469 455.969Z" fill="#5D21D1"/>
<path fill-rule="evenodd" clip-rule="evenodd" d="M268.817 633.843C273 632.135 278.992 615.31 262.509 618.493C245.991 621.653 253.517 635.86 261.375 635.186C269.221 634.454 268.817 633.843 268.817 633.843Z" fill="#FE7624"/>
<path fill-rule="evenodd" clip-rule="evenodd" d="M176.478 447.979L167.386 461.614C165.739 464.084 162.313 464.732 159.714 462.999C157.15 461.289 156.373 457.888 158.042 455.384L167.134 441.749C168.781 439.279 172.207 438.631 174.806 440.364C177.406 442.098 178.125 445.51 176.478 447.979Z" fill="#FE7624"/>
<rect width="71.0127" height="66.5145" transform="matrix(0.983989 0.178228 -0.204199 0.978929 303.125 395)" fill="#FEBA91"/>
<path fill-rule="evenodd" clip-rule="evenodd" d="M308.635 416.036C308.817 415.246 309.628 414.733 310.474 414.855L310.568 414.871L360.105 424.781C360.984 424.956 361.544 425.763 361.355 426.582C361.173 427.372 360.362 427.885 359.516 427.763L359.422 427.747L309.885 417.837C309.006 417.661 308.447 416.855 308.635 416.036Z" fill="#2E186A"/>
<path fill-rule="evenodd" clip-rule="evenodd" d="M306.844 424.682C307.026 423.892 307.837 423.379 308.683 423.5L308.777 423.517L356.578 433.072C357.457 433.248 358.016 434.054 357.828 434.874C357.646 435.663 356.835 436.176 355.989 436.055L355.895 436.038L308.094 426.483C307.215 426.307 306.656 425.501 306.844 424.682Z" fill="#2E186A"/>
<path fill-rule="evenodd" clip-rule="evenodd" d="M303.751 433.529C303.934 432.739 304.745 432.226 305.591 432.348L305.685 432.365L342.308 439.696C343.187 439.872 343.747 440.678 343.558 441.497C343.376 442.287 342.565 442.8 341.719 442.678L341.625 442.662L305.001 435.33C304.122 435.155 303.563 434.348 303.751 433.529Z" fill="#2E186A"/>
<rect width="70.43" height="67.1356" transform="matrix(0.92613 -0.377205 0.42466 0.905353 257 452.842)" fill="#FEBA91"/>
<path fill-rule="evenodd" clip-rule="evenodd" d="M312.158 455.601C312.99 455.282 313.941 455.652 314.282 456.427C314.612 457.174 314.254 458.025 313.483 458.37L313.395 458.407L282.632 470.187C281.8 470.505 280.849 470.135 280.507 469.36C280.178 468.613 280.535 467.763 281.307 467.417L281.394 467.381L312.158 455.601Z" fill="#2E186A"/>
<path fill-rule="evenodd" clip-rule="evenodd" d="M302.067 472.234C302.899 471.917 303.85 472.287 304.191 473.063C304.519 473.81 304.161 474.66 303.389 475.005L303.302 475.041L288.869 480.552C288.038 480.87 287.087 480.499 286.746 479.724C286.417 478.976 286.776 478.126 287.548 477.781L287.635 477.745L302.067 472.234Z" fill="#2E186A"/>
<path fill-rule="evenodd" clip-rule="evenodd" d="M294.87 434.1L294.11 437.741L321.402 428.286L342.616 469.745L346.469 470.402L323.084 424.292L294.87 434.1Z" fill="white"/>
<path fill-rule="evenodd" clip-rule="evenodd" d="M467.048 83.9746L478.215 65.9635C483.926 56.759 495.163 53.9356 503.396 59.6738L554.363 95.1235C562.596 100.862 564.656 112.901 558.944 122.106L547.778 140.117C542.066 149.321 530.83 152.145 522.596 146.407L471.63 110.957C463.383 105.267 461.337 93.1792 467.048 83.9746Z" fill="white"/>
<path fill-rule="evenodd" clip-rule="evenodd" d="M555.153 93.8507L504.185 58.4003C495.329 52.2283 483.228 55.2566 477.076 65.17L465.909 83.1816C459.759 93.0928 461.967 106.108 470.845 112.233L521.808 147.68C530.663 153.852 542.765 150.824 548.916 140.91L560.083 122.899C566.227 112.998 564.02 100.031 555.153 93.8507ZM557.806 121.312L546.639 139.324C541.359 147.833 530.984 150.429 523.386 145.134L472.418 109.683C464.803 104.429 462.91 93.2709 468.186 84.7679L479.354 66.7563C484.633 58.2474 495.009 55.6511 502.606 60.9463L553.574 96.3968C561.184 101.701 563.077 112.818 557.806 121.312Z" fill="#2E186A"/>
<path fill-rule="evenodd" clip-rule="evenodd" d="M502.038 87.2701C502.038 87.2701 500.889 91.651 497.229 90.6116C497.229 90.6116 497.616 86.9032 502.038 87.2701Z" fill="#2E186A"/>
<path fill-rule="evenodd" clip-rule="evenodd" d="M489.025 91.3148C489.488 91.0278 489.934 90.6315 490.322 90.2711C490.628 91.038 491.285 91.7474 492.153 92.0463C493.109 92.3702 494.101 92.2334 494.822 91.7061C495.787 92.5032 497.11 93.7159 497.43 94.4344C497.568 94.7874 498.053 94.9252 498.444 94.7224C498.835 94.5197 499.047 94.1091 498.865 93.7436C498.393 92.7205 496.671 91.2374 495.75 90.4528C495.764 90.4044 495.764 90.4044 495.777 90.356C496.248 88.8682 495.428 87.2233 493.869 86.6757C493.353 86.477 492.871 86.497 492.375 86.5653C492.812 84.8589 492.764 83.0146 492.121 81.4198C490.742 77.8898 487.049 76.6317 483.912 78.6174C480.775 80.6031 479.365 85.0666 480.788 88.6092C482.24 92.055 485.888 93.3005 489.025 91.3148Z" fill="#2E186A"/>
</svg>
