<svg width="30" height="30" viewBox="0 0 30 30" fill="none" xmlns="http://www.w3.org/2000/svg">
<path d="M3.74979 26.2503L2.8011 25.9341C2.67871 26.3013 2.77919 26.7061 3.05906 26.9734C3.33892 27.2408 3.74793 27.3226 4.10911 27.1835L3.74979 26.2503ZM7.62789 18.6222L6.92088 17.915L6.92078 17.9151L7.62789 18.6222ZM6.19266 20.1599L5.39435 19.5576L6.19266 20.1599ZM4.72897 23.3127L3.78029 22.9965L4.72897 23.3127ZM5.46245 21.3414L4.56677 20.8967L5.46245 21.3414ZM10.9493 22.3718L10.2423 21.6646L10.2422 21.6647L10.9493 22.3718ZM9.56999 23.6679L8.95684 22.878L9.56999 23.6679ZM6.77592 25.0851L7.13525 26.0183L6.77592 25.0851ZM8.52023 24.3504L8.04705 23.4695L8.52023 24.3504ZM25.2942 8.03071L26.0012 8.7379L26.0013 8.73781L25.2942 8.03071ZM21.7586 4.49517L22.4656 5.20237L22.4657 5.20228L21.7586 4.49517ZM9.51571 17.7344C9.51571 17.1821 9.06799 16.7344 8.51571 16.7344C7.96342 16.7344 7.51571 17.1821 7.51571 17.7344H9.51571ZM8.51571 21.2501H7.51571C7.51571 21.8023 7.96342 22.2501 8.51571 22.2501V21.2501ZM12.0711 22.2501C12.6234 22.2501 13.0711 21.8023 13.0711 21.2501C13.0711 20.6978 12.6234 20.2501 12.0711 20.2501V22.2501ZM24.5871 7.32351L10.2423 21.6646L11.6563 23.079L26.0012 8.7379L24.5871 7.32351ZM8.3349 19.3294L22.4656 5.20237L21.0516 3.78797L6.92088 17.915L8.3349 19.3294ZM6.4166 24.1519L3.39046 25.3171L4.10911 27.1835L7.13525 26.0183L6.4166 24.1519ZM4.69847 26.5665L5.67766 23.629L3.78029 22.9965L2.8011 25.9341L4.69847 26.5665ZM6.92078 17.9151C6.1926 18.6433 5.76053 19.0722 5.39435 19.5576L6.99098 20.7621C7.25407 20.4133 7.56907 20.0952 8.335 19.3293L6.92078 17.9151ZM5.67766 23.629C6.02019 22.6014 6.16386 22.1774 6.35813 21.7861L4.56677 20.8967C4.29638 21.4413 4.10594 22.0195 3.78029 22.9965L5.67766 23.629ZM5.39435 19.5576C5.07767 19.9774 4.80062 20.4257 4.56677 20.8967L6.35813 21.7861C6.53695 21.4259 6.74881 21.0831 6.99098 20.7621L5.39435 19.5576ZM10.2422 21.6647C9.55362 22.3533 9.26778 22.6366 8.95684 22.878L10.1831 24.4579C10.6159 24.122 11.0017 23.7337 11.6564 23.0789L10.2422 21.6647ZM7.13525 26.0183C7.99934 25.6856 8.51083 25.4906 8.99342 25.2314L8.04705 23.4695C7.70029 23.6557 7.32535 23.802 6.4166 24.1519L7.13525 26.0183ZM8.95684 22.878C8.67057 23.1002 8.36624 23.298 8.04705 23.4695L8.99342 25.2314C9.41088 25.0072 9.80884 24.7484 10.1831 24.4579L8.95684 22.878ZM24.5871 5.20228C25.1728 5.78806 25.1728 6.73781 24.5871 7.3236L26.0013 8.73781C27.3681 7.37098 27.3681 5.1549 26.0013 3.78807L24.5871 5.20228ZM26.0013 3.78807C24.6344 2.42123 22.4184 2.42123 21.0515 3.78807L22.4657 5.20228C23.0515 4.61649 24.0013 4.61649 24.5871 5.20228L26.0013 3.78807ZM7.51571 17.7344V21.2501H9.51571V17.7344H7.51571ZM8.51571 22.2501H12.0711V20.2501H8.51571V22.2501Z" fill="#20BAA3"/>
</svg>
