<svg width="120" height="174" viewBox="0 0 120 174" fill="none" xmlns="http://www.w3.org/2000/svg">
<g clip-path="url(#clip0_117_829)">
<path fill-rule="evenodd" clip-rule="evenodd" d="M34.3945 146.075L44.6433 162.48C45.1634 163.252 46.5095 162.933 46.5095 162.054L45.8365 154.597C45.8365 154.597 51.8328 172.547 60.0625 172.999C68.2921 173.452 76.1853 154.091 76.1853 154.091L74.0131 162.214C74.0131 163.119 75.3593 163.412 75.8793 162.64L86.8318 146.075" fill="#20BAA3"/>
<path fill-rule="evenodd" clip-rule="evenodd" d="M21.5735 82.6385C21.5735 82.6385 -2.8707 111.454 0.280438 137.234H54.2169V82.026L21.5735 82.6385Z" fill="#20BAA3"/>
<path fill-rule="evenodd" clip-rule="evenodd" d="M98.4266 82.6378C98.4266 82.6378 122.871 111.453 119.72 137.233H65.7832V82.0253L98.4266 82.6378Z" fill="#20BAA3"/>
<path fill-rule="evenodd" clip-rule="evenodd" d="M81.9966 137.234C102.708 104.823 100.445 79.0964 94.4176 61.4661C88.3601 43.8358 74.1647 24.1815 60.6729 24.1815C47.1812 24.1815 32.9857 43.8358 26.9282 61.4661C20.8707 79.0964 18.3314 104.823 39.0433 137.234L33.2611 148.099H87.8706L81.9966 137.234Z" fill="#25262C"/>
<path fill-rule="evenodd" clip-rule="evenodd" d="M60.6735 23.3828C53.9586 23.3828 46.8767 27.8972 40.273 35.7404C34.3606 42.7627 29.188 52.1026 26.0495 61.2374C22.4693 71.6573 20.9481 82.3728 22.0331 93.8728L22.0739 94.2932C23.4313 107.896 28.4288 122.012 37.6706 136.721L38.015 137.266L32.4288 147.764C32.1471 148.293 32.5913 148.899 33.2616 148.899H87.8711L87.9238 148.897C88.5668 148.867 88.9805 148.275 88.7016 147.759L83.0272 137.263L83.3766 136.711C92.72 121.841 97.7772 107.584 99.149 93.8767C100.303 82.3417 98.8373 71.5923 95.2978 61.2385C92.1589 52.1026 86.9864 42.7627 81.0739 35.7404C74.4702 27.8972 67.3883 23.3828 60.6735 23.3828ZM60.6746 24.98C66.6651 24.98 73.3021 29.2108 79.5945 36.6843C85.3782 43.5536 90.4594 52.7288 93.54 61.6946C97.016 71.8628 98.4548 82.4125 97.3215 93.7373C95.9445 107.497 90.7853 121.839 81.1962 136.845L81.1675 136.894C81.0518 137.108 81.0511 137.357 81.1679 137.573L86.4258 147.3H34.6992L39.8778 137.569C40.0011 137.337 39.9897 137.068 39.847 136.845C30.2679 121.855 25.1638 107.521 23.8637 93.7413C22.7984 82.4507 24.2917 71.9324 27.8092 61.6946C30.8898 52.7288 35.971 43.5536 41.7547 36.6843C48.0471 29.2108 54.6841 24.98 60.6746 24.98Z" fill="#36A091"/>
<path fill-rule="evenodd" clip-rule="evenodd" d="M60.6735 90.8674C69.1893 90.8674 76.0927 83.7133 76.0927 74.8883C76.0927 66.0633 69.1893 58.9092 60.6735 58.9092C52.1578 58.9092 45.2544 66.0633 45.2544 74.8883C45.2544 83.7133 52.1578 90.8674 60.6735 90.8674Z" fill="#20BAA3"/>
<path fill-rule="evenodd" clip-rule="evenodd" d="M60.6718 98.0584C62.0911 98.0584 63.2417 96.8661 63.2417 95.3952C63.2417 93.9244 62.0911 92.7321 60.6718 92.7321C59.2526 92.7321 58.1021 93.9244 58.1021 95.3952C58.1021 96.8661 59.2526 98.0584 60.6718 98.0584Z" fill="#20BAA3"/>
<path fill-rule="evenodd" clip-rule="evenodd" d="M70.5842 98.0584C72.0035 98.0584 73.1541 96.8661 73.1541 95.3952C73.1541 93.9244 72.0035 92.7321 70.5842 92.7321C69.1649 92.7321 68.0144 93.9244 68.0144 95.3952C68.0144 96.8661 69.1649 98.0584 70.5842 98.0584Z" fill="#20BAA3"/>
<path fill-rule="evenodd" clip-rule="evenodd" d="M49.9951 98.0584C51.4144 98.0584 52.565 96.8661 52.565 95.3952C52.565 93.9244 51.4144 92.7321 49.9951 92.7321C48.5758 92.7321 47.4253 93.9244 47.4253 95.3952C47.4253 96.8661 48.5758 98.0584 49.9951 98.0584Z" fill="#20BAA3"/>
<path fill-rule="evenodd" clip-rule="evenodd" d="M60.6728 85.3812C67.1103 85.3812 72.3289 79.9799 72.3289 73.317C72.3289 66.6541 67.1103 61.2528 60.6728 61.2528C54.2352 61.2528 49.0166 66.6541 49.0166 73.317C49.0166 79.9799 54.2352 85.3812 60.6728 85.3812Z" fill="#25262C"/>
<path fill-rule="evenodd" clip-rule="evenodd" d="M60.6735 60.4535C53.6905 60.4535 48.0996 66.2402 48.0996 73.3167C48.0996 80.3931 53.6905 86.1798 60.6735 86.1798C67.6565 86.1798 73.2475 80.3931 73.2475 73.3167C73.2475 66.2402 67.6565 60.4535 60.6735 60.4535ZM60.6741 62.0514C66.5661 62.0514 71.4124 67.0674 71.4124 73.3167C71.4124 79.566 66.5661 84.582 60.6741 84.582C54.7821 84.582 49.9358 79.566 49.9358 73.3167C49.9358 67.0674 54.7821 62.0514 60.6741 62.0514Z" fill="#36A091"/>
<path fill-rule="evenodd" clip-rule="evenodd" d="M63.3951 23.729V4.84699C63.3951 4.79373 63.3951 4.74047 63.3951 4.66057C63.7928 4.1812 64.0375 3.56867 64.0375 2.9295C64.0375 1.30496 62.5384 0 60.6722 0C58.806 0 57.3069 1.30496 57.3069 2.9295C57.3069 3.56867 57.5517 4.1812 57.9494 4.66057C57.9494 4.71383 57.9494 4.7671 57.9494 4.84699V23.7023C52.2896 24.7143 46.6298 28.8423 41.4595 34.3817C47.3028 33.2099 54.1252 32.5707 61.9572 32.9436C68.9631 33.2898 75.2042 34.142 80.6804 35.2872C75.3265 29.3216 69.3302 24.8475 63.3951 23.729Z" fill="#20BAA3"/>
<path fill-rule="evenodd" clip-rule="evenodd" d="M85.7895 45.0877C79.0283 43.1169 71.2575 41.3859 60.8251 41.0397C50.1786 40.6934 42.1019 42.7707 35.4631 45.0344C32.5567 49.7216 30.2622 54.3556 28.396 59.3357C36.3503 55.9535 46.1096 52.3848 61.0699 52.6245C75.2959 52.8376 85.0858 55.5806 92.52 58.4569C90.715 53.7963 88.5123 49.5086 85.7895 45.0877Z" fill="#20BAA3"/>
<path fill-rule="evenodd" clip-rule="evenodd" d="M81.2008 137.1C82.1798 135.556 83.1282 134.038 84.0154 132.52C79.3346 130.868 72.604 129.484 60.642 129.59C48.5575 129.51 41.7963 130.922 37.1155 132.6C38.0027 134.091 38.9205 135.609 39.8689 137.127C39.8689 137.127 50.4849 135.316 60.6114 135.396C70.5849 135.316 81.2008 137.1 81.2008 137.1Z" fill="#20BAA3"/>
</g>
<defs>
<clipPath id="clip0_117_829">
<rect width="120" height="174" fill="white"/>
</clipPath>
</defs>
</svg>
