<svg width="30" height="30" viewBox="0 0 30 30" fill="none" xmlns="http://www.w3.org/2000/svg">
<path d="M5 6.50001C4.44772 6.50001 4 6.94773 4 7.50001C4 8.05229 4.44772 8.50001 5 8.50001V6.50001ZM25 8.50001C25.5523 8.50001 26 8.05229 26 7.50001C26 6.94773 25.5523 6.50001 25 6.50001V8.50001ZM19.6617 6.4851L18.713 6.80133L19.6617 6.4851ZM19.0513 7.81624C19.226 8.34018 19.7923 8.62334 20.3162 8.44869C20.8402 8.27405 21.1233 7.70773 20.9487 7.18378L19.0513 7.81624ZM9.05132 7.18378C8.87667 7.70773 9.15983 8.27405 9.68377 8.44869C10.2077 8.62334 10.774 8.34018 10.9487 7.81624L9.05132 7.18378ZM10.3383 6.4851L9.38962 6.16887L10.3383 6.4851ZM17.8631 3.92348L18.2291 2.99287L17.8631 3.92348ZM18.8659 4.64624L18.0988 5.28775L18.8659 4.64624ZM12.1369 3.92348L12.5029 4.85409L12.1369 3.92348ZM11.1341 4.64624L11.9012 5.28775L11.1341 4.64624ZM23.5 7.50001C23.5 6.94773 23.0523 6.50001 22.5 6.50001C21.9477 6.50001 21.5 6.94773 21.5 7.50001H23.5ZM8.5 7.50001C8.5 6.94773 8.05228 6.50001 7.5 6.50001C6.94772 6.50001 6.5 6.94773 6.5 7.50001H8.5ZM9.54754 25.8413L10.0015 24.9503L9.54754 25.8413ZM7.90873 24.2025L7.01772 24.6565L7.90873 24.2025ZM22.0913 24.2025L21.2003 23.7485L22.0913 24.2025ZM20.4525 25.8413L19.9985 24.9503L20.4525 25.8413ZM18.5 12.5C18.5 11.9477 18.0523 11.5 17.5 11.5C16.9477 11.5 16.5 11.9477 16.5 12.5H18.5ZM16.5 21.25C16.5 21.8023 16.9477 22.25 17.5 22.25C18.0523 22.25 18.5 21.8023 18.5 21.25H16.5ZM13.5 12.5C13.5 11.9477 13.0523 11.5 12.5 11.5C11.9477 11.5 11.5 11.9477 11.5 12.5H13.5ZM11.5 21.25C11.5 21.8023 11.9477 22.25 12.5 22.25C13.0523 22.25 13.5 21.8023 13.5 21.25H11.5ZM5 8.50001H25V6.50001H5V8.50001ZM14.133 4.75001H15.867V2.75001H14.133V4.75001ZM18.713 6.80133L19.0513 7.81624L20.9487 7.18378L20.6104 6.16887L18.713 6.80133ZM10.9487 7.81624L11.287 6.80133L9.38962 6.16887L9.05132 7.18378L10.9487 7.81624ZM15.867 4.75001C16.989 4.75001 17.2752 4.76682 17.4971 4.85409L18.2291 2.99287C17.5689 2.7332 16.8184 2.75001 15.867 2.75001V4.75001ZM20.6104 6.16887C20.3095 5.26629 20.0881 4.54896 19.633 4.00473L18.0988 5.28775C18.2517 5.47067 18.3582 5.73686 18.713 6.80133L20.6104 6.16887ZM17.4971 4.85409C17.7308 4.946 17.9377 5.09511 18.0988 5.28775L19.633 4.00473C19.2571 3.55524 18.7744 3.20732 18.2291 2.99287L17.4971 4.85409ZM14.133 2.75001C13.1816 2.75001 12.4311 2.7332 11.7709 2.99287L12.5029 4.85409C12.7248 4.76682 13.011 4.75001 14.133 4.75001V2.75001ZM11.287 6.80133C11.6418 5.73686 11.7483 5.47067 11.9012 5.28775L10.367 4.00473C9.91188 4.54896 9.69048 5.26629 9.38962 6.16887L11.287 6.80133ZM11.7709 2.99287C11.2256 3.20732 10.7429 3.55524 10.367 4.00473L11.9012 5.28775C12.0623 5.09511 12.2692 4.946 12.5029 4.85409L11.7709 2.99287ZM21.5 7.50001V20.25H23.5V7.50001H21.5ZM16.5 25.25H13.5V27.25H16.5V25.25ZM8.5 20.25V7.50001H6.5V20.25H8.5ZM13.5 25.25C12.4334 25.25 11.6936 25.2492 11.1184 25.2022C10.555 25.1562 10.2381 25.0708 10.0015 24.9503L9.09354 26.7323C9.6591 27.0204 10.2684 27.1394 10.9556 27.1956C11.6311 27.2508 12.4664 27.25 13.5 27.25V25.25ZM6.5 20.25C6.5 21.2836 6.49922 22.1189 6.55441 22.7944C6.61055 23.4816 6.72956 24.0909 7.01772 24.6565L8.79973 23.7485C8.67917 23.5119 8.59381 23.195 8.54777 22.6316C8.50078 22.0564 8.5 21.3166 8.5 20.25H6.5ZM10.0015 24.9503C9.48408 24.6866 9.06338 24.2659 8.79973 23.7485L7.01772 24.6565C7.47312 25.5502 8.19978 26.2769 9.09355 26.7323L10.0015 24.9503ZM21.5 20.25C21.5 21.3166 21.4992 22.0564 21.4522 22.6316C21.4062 23.195 21.3208 23.5119 21.2003 23.7485L22.9823 24.6565C23.2704 24.0909 23.3894 23.4816 23.4456 22.7944C23.5008 22.1189 23.5 21.2836 23.5 20.25H21.5ZM16.5 27.25C17.5336 27.25 18.3689 27.2508 19.0444 27.1956C19.7316 27.1394 20.3409 27.0204 20.9065 26.7323L19.9985 24.9503C19.7619 25.0708 19.445 25.1562 18.8816 25.2022C18.3064 25.2492 17.5666 25.25 16.5 25.25V27.25ZM21.2003 23.7485C20.9366 24.2659 20.5159 24.6866 19.9985 24.9503L20.9065 26.7323C21.8002 26.2769 22.5269 25.5502 22.9823 24.6565L21.2003 23.7485ZM16.5 12.5V21.25H18.5V12.5H16.5ZM11.5 12.5V21.25H13.5V12.5H11.5Z" fill="#D92762"/>
</svg>
