<svg width="52" height="35" viewBox="0 0 52 35" fill="none" xmlns="http://www.w3.org/2000/svg">
<path fill-rule="evenodd" clip-rule="evenodd" d="M50.1327 34.0588H1.86748C0.987641 34.0588 0.269409 33.3023 0.269409 32.3757V1.96666C0.269409 1.04001 0.987641 0.283569 1.86748 0.283569H50.1327C51.0125 0.283569 51.7307 1.04001 51.7307 1.96666V32.3851C51.7218 33.3023 51.0125 34.0588 50.1327 34.0588Z" fill="#1B1C22"/>
<path fill-rule="evenodd" clip-rule="evenodd" d="M50.1326 0H1.8674C0.838818 0 0 0.883445 0 1.96675V32.3758C0 33.4591 0.838818 34.3425 1.8674 34.3425H50.1326C51.1562 34.3425 51.9894 33.465 52 32.3882L52 1.96675C52 0.883445 51.1612 0 50.1326 0ZM1.86735 0.567377H50.1325C50.8636 0.567377 51.4613 1.19682 51.4613 1.9668V32.3853C51.4538 33.1495 50.8596 33.7753 50.1325 33.7753H1.86735C1.13626 33.7753 0.538617 33.1458 0.538617 32.3758V1.9668C0.538617 1.19682 1.13626 0.567377 1.86735 0.567377Z" fill="#E3A322"/>
<path fill-rule="evenodd" clip-rule="evenodd" d="M50.9458 0.409507C51.0632 0.313318 51.2324 0.335586 51.3238 0.459245C51.4116 0.578148 51.3954 0.747497 51.2897 0.84586L51.2765 0.857315L27.108 20.6572C26.455 21.1921 25.5813 21.2001 24.9218 20.6812L24.8919 20.6572L0.723427 0.857315C0.606015 0.761125 0.584872 0.582904 0.676202 0.459245C0.764019 0.340343 0.923849 0.315181 1.04039 0.398933L1.05416 0.409507L25.2227 20.2094C25.6825 20.5861 26.2865 20.5929 26.7516 20.23L26.7773 20.2094L50.9458 0.409507Z" fill="#E3A322"/>
<path fill-rule="evenodd" clip-rule="evenodd" d="M0.816833 27.7898L15.5675 12.6893Z" fill="#1B1C22"/>
<path fill-rule="evenodd" clip-rule="evenodd" d="M15.3799 12.4859C15.4866 12.3767 15.6571 12.3793 15.7608 12.4916C15.8603 12.5994 15.862 12.7693 15.7677 12.8793L15.7554 12.8927L1.00467 27.9932C0.898007 28.1024 0.727489 28.0999 0.62381 27.9875C0.524278 27.8797 0.522528 27.7099 0.616918 27.5998L0.629217 27.5864L15.3799 12.4859Z" fill="#E3A322"/>
<path fill-rule="evenodd" clip-rule="evenodd" d="M36.5581 12.6893L51.5871 28.0735Z" fill="#1B1C22"/>
<path fill-rule="evenodd" clip-rule="evenodd" d="M36.3649 12.4916C36.4644 12.3837 36.6255 12.3771 36.7327 12.4733L36.7458 12.4859L51.7748 27.8701C51.8814 27.9793 51.8839 28.1588 51.7802 28.2712C51.6807 28.379 51.5195 28.3857 51.4124 28.2895L51.3993 28.2769L36.3703 12.8927C36.2636 12.7835 36.2612 12.6039 36.3649 12.4916Z" fill="#E3A322"/>
</svg>
