<svg width="126" height="63" viewBox="0 0 126 63" fill="none" xmlns="http://www.w3.org/2000/svg">
<path fill-rule="evenodd" clip-rule="evenodd" d="M11.9746 44.6483L12.2263 50.4173C12.2472 50.6933 12.6161 50.7636 12.7354 50.5194L13.585 48.3681C13.585 48.3681 12.5985 54.0637 14.5273 55.162C16.4562 56.2603 20.9936 51.814 20.9936 51.814L19.3655 53.814C19.2426 54.0656 19.5284 54.306 19.759 54.1529L24.6566 50.845" fill="#5D21D1"/>
<path fill-rule="evenodd" clip-rule="evenodd" d="M17.486 25.5088C17.486 25.5088 7.66234 30.626 4.9248 38.1607L17.9694 44.5345L25.464 29.1962L17.486 25.5088Z" fill="#5D21D1"/>
<path fill-rule="evenodd" clip-rule="evenodd" d="M36.0724 34.5905C36.0724 34.5905 38.0725 45.485 33.8108 52.275L20.7662 45.9011L28.2607 30.5628L36.0724 34.5905Z" fill="#5D21D1"/>
<path fill-rule="evenodd" clip-rule="evenodd" d="M24.6874 47.8172C34.0965 41.2601 37.0413 33.8451 37.9771 28.2347C38.9054 22.6206 38.1403 15.4826 34.8773 13.8882C31.6143 12.2939 25.5131 16.0769 21.6547 20.2592C17.7963 24.4416 13.6898 31.289 14.2991 42.7413L11.4256 45.0768L24.633 51.5302L24.6874 47.8172Z" fill="white"/>
<path fill-rule="evenodd" clip-rule="evenodd" d="M34.986 13.6663C33.362 12.8728 31.0364 13.2901 28.3746 14.6888C25.9913 15.9411 23.4725 17.9248 21.4733 20.0918C19.1929 22.5637 17.3703 25.361 16.0716 28.6842L16.0244 28.8059C14.5061 32.7455 13.7985 37.2578 14.0368 42.4366L14.0461 42.6287L11.27 44.8852C11.13 44.999 11.1552 45.2197 11.3174 45.2989L24.5247 51.7523L24.5376 51.7581C24.6973 51.8256 24.8776 51.7102 24.8802 51.5339L24.9328 47.9472L25.0922 47.8351C29.3706 44.8079 32.5291 41.4446 34.7217 37.7983C36.5668 34.73 37.6714 31.5703 38.221 28.2754C38.702 25.3662 38.719 22.1601 38.2423 19.5104C37.7099 16.551 36.61 14.4598 34.986 13.6663ZM34.7695 14.1102C36.2183 14.8181 37.2491 16.7779 37.7564 19.5978C38.2227 22.1898 38.206 25.3394 37.7339 28.1944C37.1942 31.4302 36.1101 34.5312 34.2986 37.5437C32.0977 41.2038 28.9029 44.5788 24.5468 47.6146L24.5332 47.6248C24.4761 47.6707 24.4421 47.7398 24.441 47.8137L24.3922 51.1373L11.8821 45.0246L14.4555 42.9331C14.5168 42.8832 14.5506 42.8071 14.5464 42.7282C14.2646 37.4316 14.976 32.846 16.5322 28.864C17.8073 25.6013 19.5963 22.8555 21.8369 20.4268C23.799 18.2999 26.2735 16.3512 28.6048 15.1262C31.1412 13.7934 33.3207 13.4023 34.7695 14.1102Z" fill="#2E186A"/>
<path fill-rule="evenodd" clip-rule="evenodd" d="M25.8253 32.4156C27.8849 33.4219 30.5256 32.2501 31.7237 29.7982C32.9217 27.3464 32.2233 24.543 30.1637 23.5367C28.1042 22.5303 25.4634 23.7021 24.2654 26.154C23.0674 28.6058 23.7658 31.4092 25.8253 32.4156Z" fill="#5D21D1"/>
<path fill-rule="evenodd" clip-rule="evenodd" d="M24.8487 34.4133C25.1919 34.581 25.632 34.3857 25.8317 33.977C26.0314 33.5684 25.915 33.1012 25.5717 32.9334C25.2285 32.7657 24.7883 32.961 24.5887 33.3697C24.389 33.7783 24.5054 34.2455 24.8487 34.4133Z" fill="#5D21D1"/>
<path fill-rule="evenodd" clip-rule="evenodd" d="M27.2451 35.5846C27.5884 35.7523 28.0285 35.557 28.2282 35.1484C28.4279 34.7397 28.3115 34.2725 27.9682 34.1048C27.6249 33.9371 27.1848 34.1324 26.9851 34.541C26.7855 34.9496 26.9019 35.4169 27.2451 35.5846Z" fill="#5D21D1"/>
<path fill-rule="evenodd" clip-rule="evenodd" d="M22.2656 33.1515C22.6089 33.3192 23.049 33.1239 23.2487 32.7153C23.4484 32.3067 23.332 31.8394 22.9887 31.6717C22.6455 31.504 22.2053 31.6993 22.0057 32.1079C21.806 32.5166 21.9224 32.9838 22.2656 33.1515Z" fill="#5D21D1"/>
<path fill-rule="evenodd" clip-rule="evenodd" d="M26.569 30.8913C28.1259 31.652 30.1212 30.7681 31.0258 28.9169C31.9303 27.0658 31.4014 24.9484 29.8444 24.1877C28.2875 23.4269 26.2921 24.3109 25.3876 26.162C24.4831 28.0132 25.012 30.1305 26.569 30.8913Z" fill="white"/>
<path fill-rule="evenodd" clip-rule="evenodd" d="M29.9541 23.9657C28.2653 23.1405 26.1275 24.0875 25.1669 26.0535C24.2062 28.0196 24.7729 30.288 26.4617 31.1132C28.1505 31.9384 30.2883 30.9914 31.2489 29.0253C32.2096 27.0593 31.643 24.7909 29.9541 23.9657ZM29.7374 24.4097C31.1623 25.106 31.6535 27.0722 30.8051 28.8085C29.9568 30.5447 28.1038 31.3656 26.6788 30.6693C25.2538 29.973 24.7626 28.0067 25.611 26.2705C26.4593 24.5343 28.3124 23.7134 29.7374 24.4097Z" fill="#2E186A"/>
<path fill-rule="evenodd" clip-rule="evenodd" d="M35.5976 14.0842L38.1608 8.83821C38.1681 8.82341 38.1753 8.80862 38.1861 8.78642C38.3474 8.70023 38.4897 8.55898 38.5765 8.3814C38.797 7.93005 38.6116 7.39035 38.1603 7.16981C37.709 6.94928 37.1692 7.13468 36.9487 7.58603C36.8619 7.7636 36.838 7.96271 36.8691 8.14289C36.8619 8.15769 36.8546 8.17249 36.8438 8.19468L34.2841 13.4332C32.7779 13.0456 30.8487 13.5236 28.8463 14.4516C30.4186 14.8166 32.1553 15.4452 33.9989 16.4743C35.6463 17.3984 37.04 18.3727 38.209 19.338C37.724 17.048 36.8811 15.0963 35.5976 14.0842Z" fill="#5D21D1"/>
<path fill-rule="evenodd" clip-rule="evenodd" d="M38.1141 22.6646C36.7464 21.3181 35.1021 19.9189 32.626 18.5899C30.0981 17.2355 27.8627 16.8582 25.9498 16.7026C24.6106 17.6614 23.4266 18.6777 22.2992 19.8408C24.6821 19.8411 27.5269 20.0029 31.1125 21.8374C34.5241 23.5777 36.5195 25.4967 37.927 27.1744C38.1231 25.6662 38.1725 24.2147 38.1141 22.6646Z" fill="#5D21D1"/>
<path fill-rule="evenodd" clip-rule="evenodd" d="M24.5129 47.6862C24.9593 47.3727 25.3948 47.063 25.8154 46.7461C24.9075 45.7343 23.4677 44.5541 20.5602 43.1701C17.6484 41.7199 15.8216 41.313 14.4618 41.226C14.4739 41.7452 14.4898 42.2754 14.5131 42.8093C14.5131 42.8093 17.3264 43.5606 19.7647 44.7795C22.1876 45.9359 24.5129 47.6862 24.5129 47.6862Z" fill="#5D21D1"/>
<path d="M45.66 40V26.92H48.28L50.6 33.32C50.7467 33.7333 50.8867 34.16 51.02 34.6C51.1667 35.0267 51.3067 35.4533 51.44 35.88H51.52C51.6667 35.4533 51.8067 35.0267 51.94 34.6C52.0733 34.16 52.2067 33.7333 52.34 33.32L54.6 26.92H57.24V40H55.1V34.02C55.1 33.6067 55.1133 33.16 55.14 32.68C55.18 32.1867 55.22 31.6933 55.26 31.2C55.3133 30.7067 55.36 30.26 55.4 29.86H55.32L54.26 32.9L52.12 38.78H50.74L48.58 32.9L47.54 29.86H47.46C47.5 30.26 47.54 30.7067 47.58 31.2C47.6333 31.6933 47.6733 32.1867 47.7 32.68C47.74 33.16 47.76 33.6067 47.76 34.02V40H45.66ZM64.5623 40.24C63.6557 40.24 62.8357 40.04 62.1023 39.64C61.369 39.2267 60.789 38.64 60.3623 37.88C59.9357 37.1067 59.7223 36.18 59.7223 35.1C59.7223 34.0333 59.9357 33.1133 60.3623 32.34C60.8023 31.5667 61.369 30.9733 62.0623 30.56C62.7557 30.1467 63.4823 29.94 64.2423 29.94C65.1357 29.94 65.8823 30.14 66.4823 30.54C67.0823 30.9267 67.5357 31.4733 67.8423 32.18C68.149 32.8733 68.3023 33.68 68.3023 34.6C68.3023 35.08 68.269 35.4533 68.2023 35.72H61.9623C62.069 36.5867 62.3823 37.26 62.9023 37.74C63.4223 38.22 64.0757 38.46 64.8623 38.46C65.289 38.46 65.6823 38.4 66.0423 38.28C66.4157 38.1467 66.7823 37.9667 67.1423 37.74L67.9223 39.18C67.4557 39.4867 66.9357 39.74 66.3623 39.94C65.789 40.14 65.189 40.24 64.5623 40.24ZM61.9423 34.16H66.3023C66.3023 33.4 66.1357 32.8067 65.8023 32.38C65.469 31.94 64.969 31.72 64.3023 31.72C63.729 31.72 63.2157 31.9333 62.7623 32.36C62.3223 32.7733 62.049 33.3733 61.9423 34.16ZM74.6991 40.24C73.7924 40.24 72.9724 40.04 72.2391 39.64C71.5057 39.2267 70.9257 38.64 70.4991 37.88C70.0724 37.1067 69.8591 36.18 69.8591 35.1C69.8591 34.0333 70.0724 33.1133 70.4991 32.34C70.9391 31.5667 71.5057 30.9733 72.1991 30.56C72.8924 30.1467 73.6191 29.94 74.3791 29.94C75.2724 29.94 76.0191 30.14 76.6191 30.54C77.2191 30.9267 77.6724 31.4733 77.9791 32.18C78.2857 32.8733 78.4391 33.68 78.4391 34.6C78.4391 35.08 78.4057 35.4533 78.3391 35.72H72.0991C72.2057 36.5867 72.5191 37.26 73.0391 37.74C73.5591 38.22 74.2124 38.46 74.9991 38.46C75.4257 38.46 75.8191 38.4 76.1791 38.28C76.5524 38.1467 76.9191 37.9667 77.2791 37.74L78.0591 39.18C77.5924 39.4867 77.0724 39.74 76.4991 39.94C75.9257 40.14 75.3257 40.24 74.6991 40.24ZM72.0791 34.16H76.4391C76.4391 33.4 76.2724 32.8067 75.9391 32.38C75.6057 31.94 75.1057 31.72 74.4391 31.72C73.8657 31.72 73.3524 31.9333 72.8991 32.36C72.4591 32.7733 72.1857 33.3733 72.0791 34.16ZM83.9005 40.24C82.7671 40.24 81.9605 39.9133 81.4805 39.26C81.0138 38.5933 80.7805 37.7333 80.7805 36.68V32H79.3805V30.28L80.9005 30.18L81.1805 27.5H83.1005V30.18H85.6005V32H83.1005V36.68C83.1005 37.8267 83.5605 38.4 84.4805 38.4C84.6538 38.4 84.8338 38.38 85.0205 38.34C85.2071 38.2867 85.3671 38.2333 85.5005 38.18L85.9005 39.88C85.6338 39.9733 85.3271 40.0533 84.9805 40.12C84.6471 40.2 84.2871 40.24 83.9005 40.24ZM92.767 40.24C91.767 40.24 90.8937 40.04 90.147 39.64C89.4004 39.24 88.8204 38.6 88.407 37.72C88.007 36.84 87.807 35.6867 87.807 34.26V26.92H90.127V34.44C90.127 35.3867 90.2337 36.14 90.447 36.7C90.6737 37.2467 90.987 37.64 91.387 37.88C91.787 38.1067 92.247 38.22 92.767 38.22C93.3004 38.22 93.767 38.1067 94.167 37.88C94.5804 37.64 94.9004 37.2467 95.127 36.7C95.367 36.14 95.487 35.3867 95.487 34.44V26.92H97.707V34.26C97.707 35.6867 97.507 36.84 97.107 37.72C96.707 38.6 96.1337 39.24 95.387 39.64C94.6537 40.04 93.7804 40.24 92.767 40.24ZM100.773 43.88V30.18H102.673L102.833 31.22H102.913C103.326 30.8733 103.786 30.5733 104.293 30.32C104.813 30.0667 105.339 29.94 105.873 29.94C107.099 29.94 108.046 30.3933 108.713 31.3C109.393 32.2067 109.733 33.42 109.733 34.94C109.733 36.06 109.533 37.02 109.133 37.82C108.733 38.6067 108.213 39.2067 107.573 39.62C106.946 40.0333 106.266 40.24 105.533 40.24C105.106 40.24 104.679 40.1467 104.253 39.96C103.826 39.76 103.413 39.4933 103.013 39.16L103.073 40.8V43.88H100.773ZM105.053 38.34C105.706 38.34 106.253 38.0533 106.693 37.48C107.133 36.9067 107.353 36.0667 107.353 34.96C107.353 33.9733 107.186 33.2067 106.853 32.66C106.519 32.1133 105.979 31.84 105.233 31.84C104.539 31.84 103.819 32.2067 103.073 32.94V37.52C103.433 37.8133 103.779 38.0267 104.113 38.16C104.446 38.28 104.759 38.34 105.053 38.34ZM114.723 40.24C114.057 40.24 113.39 40.1133 112.723 39.86C112.057 39.5933 111.483 39.2667 111.003 38.88L112.083 37.4C112.523 37.7333 112.963 38 113.403 38.2C113.843 38.4 114.31 38.5 114.803 38.5C115.337 38.5 115.73 38.3867 115.983 38.16C116.237 37.9333 116.363 37.6533 116.363 37.32C116.363 37.04 116.257 36.8133 116.043 36.64C115.843 36.4533 115.583 36.2933 115.263 36.16C114.943 36.0133 114.61 35.8733 114.263 35.74C113.837 35.58 113.41 35.3867 112.983 35.16C112.57 34.92 112.23 34.62 111.963 34.26C111.697 33.8867 111.563 33.4267 111.563 32.88C111.563 32.0133 111.883 31.3067 112.523 30.76C113.163 30.2133 114.03 29.94 115.123 29.94C115.817 29.94 116.437 30.06 116.983 30.3C117.53 30.54 118.003 30.8133 118.403 31.12L117.343 32.52C116.997 32.2667 116.643 32.0667 116.283 31.92C115.937 31.76 115.57 31.68 115.183 31.68C114.69 31.68 114.323 31.7867 114.083 32C113.843 32.2 113.723 32.4533 113.723 32.76C113.723 33.1467 113.923 33.44 114.323 33.64C114.723 33.84 115.19 34.0333 115.723 34.22C116.177 34.38 116.617 34.58 117.043 34.82C117.47 35.0467 117.823 35.3467 118.103 35.72C118.397 36.0933 118.543 36.5867 118.543 37.2C118.543 38.04 118.217 38.76 117.563 39.36C116.91 39.9467 115.963 40.24 114.723 40.24ZM121.517 35.7L121.197 28.88L121.137 26.6H123.457L123.377 28.88L123.057 35.7H121.517ZM122.297 40.24C121.883 40.24 121.53 40.0933 121.237 39.8C120.943 39.5067 120.797 39.1333 120.797 38.68C120.797 38.2267 120.943 37.8533 121.237 37.56C121.53 37.2667 121.883 37.12 122.297 37.12C122.723 37.12 123.077 37.2667 123.357 37.56C123.637 37.8533 123.777 38.2267 123.777 38.68C123.777 39.1333 123.637 39.5067 123.357 39.8C123.077 40.0933 122.723 40.24 122.297 40.24Z" fill="#5D21D1"/>
</svg>
