<svg width="30" height="30" viewBox="0 0 30 30" fill="none" xmlns="http://www.w3.org/2000/svg">
<path d="M3.74988 26.2503L2.80119 25.9341C2.6788 26.3013 2.77928 26.7061 3.05915 26.9734C3.33901 27.2408 3.74802 27.3226 4.1092 27.1835L3.74988 26.2503ZM7.62798 18.6222L6.92097 17.915L6.92087 17.9151L7.62798 18.6222ZM6.19275 20.1599L5.39444 19.5576L6.19275 20.1599ZM4.72906 23.3127L3.78038 22.9965L3.78038 22.9965L4.72906 23.3127ZM5.46254 21.3414L4.56686 20.8967L5.46254 21.3414ZM10.9494 22.3718L10.2424 21.6646L10.2423 21.6647L10.9494 22.3718ZM9.57008 23.6679L8.95693 22.878L9.57008 23.6679ZM6.77601 25.0851L7.13534 26.0183L7.13534 26.0183L6.77601 25.0851ZM8.52032 24.3504L8.04714 23.4695L8.52032 24.3504ZM25.2943 8.03071L26.0013 8.7379L26.0014 8.73781L25.2943 8.03071ZM21.7587 4.49517L22.4657 5.20237L22.4658 5.20228L21.7587 4.49517ZM9.5158 17.7344C9.5158 17.1821 9.06808 16.7344 8.5158 16.7344C7.96351 16.7344 7.5158 17.1821 7.5158 17.7344H9.5158ZM8.5158 21.2501H7.5158C7.5158 21.8023 7.96351 22.2501 8.5158 22.2501V21.2501ZM12.0712 22.2501C12.6235 22.2501 13.0712 21.8023 13.0712 21.2501C13.0712 20.6978 12.6235 20.2501 12.0712 20.2501V22.2501ZM24.5872 7.32351L10.2424 21.6646L11.6564 23.079L26.0013 8.7379L24.5872 7.32351ZM8.33499 19.3294L22.4657 5.20237L21.0517 3.78797L6.92097 17.915L8.33499 19.3294ZM6.41669 24.1519L3.39055 25.3171L4.1092 27.1835L7.13534 26.0183L6.41669 24.1519ZM4.69856 26.5665L5.67775 23.629L3.78038 22.9965L2.80119 25.9341L4.69856 26.5665ZM6.92087 17.9151C6.19269 18.6433 5.76062 19.0722 5.39444 19.5576L6.99107 20.7621C7.25416 20.4133 7.56916 20.0952 8.33509 19.3293L6.92087 17.9151ZM5.67775 23.629C6.02028 22.6014 6.16395 22.1774 6.35822 21.7861L4.56686 20.8967C4.29647 21.4413 4.10603 22.0195 3.78038 22.9965L5.67775 23.629ZM5.39444 19.5576C5.07776 19.9774 4.80071 20.4257 4.56686 20.8967L6.35822 21.7861C6.53704 21.4259 6.7489 21.0831 6.99107 20.7621L5.39444 19.5576ZM10.2423 21.6647C9.55371 22.3533 9.26787 22.6366 8.95693 22.878L10.1832 24.4579C10.616 24.122 11.0018 23.7337 11.6565 23.0789L10.2423 21.6647ZM7.13534 26.0183C7.99943 25.6856 8.51092 25.4906 8.99351 25.2314L8.04714 23.4695C7.70038 23.6557 7.32544 23.802 6.41669 24.1519L7.13534 26.0183ZM8.95693 22.878C8.67066 23.1002 8.36633 23.298 8.04714 23.4695L8.99351 25.2314C9.41097 25.0072 9.80893 24.7484 10.1832 24.4579L8.95693 22.878ZM24.5872 5.20228C25.1729 5.78806 25.1729 6.73781 24.5872 7.3236L26.0014 8.73781C27.3682 7.37098 27.3682 5.1549 26.0014 3.78807L24.5872 5.20228ZM26.0014 3.78807C24.6345 2.42123 22.4185 2.42123 21.0516 3.78807L22.4658 5.20228C23.0516 4.61649 24.0014 4.61649 24.5872 5.20228L26.0014 3.78807ZM7.5158 17.7344V21.2501H9.5158V17.7344H7.5158ZM8.5158 22.2501H12.0712V20.2501H8.5158V22.2501Z" fill="#5D21D1"/>
</svg>
