<svg width="120" height="174" viewBox="0 0 120 174" fill="none" xmlns="http://www.w3.org/2000/svg">
<path fill-rule="evenodd" clip-rule="evenodd" d="M34.3946 146.075L44.6434 162.48C45.1635 163.252 46.5096 162.933 46.5096 162.054L45.8366 154.597C45.8366 154.597 51.8329 172.547 60.0626 172.999C68.2922 173.452 76.1854 154.091 76.1854 154.091L74.0132 162.214C74.0132 163.119 75.3594 163.412 75.8794 162.64L86.8319 146.075" fill="#5D21D1"/>
<path fill-rule="evenodd" clip-rule="evenodd" d="M21.5735 82.6385C21.5735 82.6385 -2.8707 111.454 0.280437 137.234H54.2169L54.2169 82.026L21.5735 82.6385Z" fill="#5D21D1"/>
<path fill-rule="evenodd" clip-rule="evenodd" d="M98.4265 82.6378C98.4265 82.6378 122.871 111.453 119.72 137.233H65.7831L65.7831 82.0253L98.4265 82.6378Z" fill="#5D21D1"/>
<path fill-rule="evenodd" clip-rule="evenodd" d="M81.9966 137.234C102.708 104.823 100.445 79.0964 94.4176 61.4661C88.3601 43.8358 74.1647 24.1815 60.6729 24.1815C47.1812 24.1815 32.9857 43.8358 26.9282 61.4661C20.8707 79.0964 18.3314 104.823 39.0433 137.234L33.2611 148.099H87.8706L81.9966 137.234V137.234Z" fill="white"/>
<path fill-rule="evenodd" clip-rule="evenodd" d="M60.6734 23.3828C53.9585 23.3828 46.8766 27.8972 40.2729 35.7404C34.3605 42.7627 29.1879 52.1026 26.0494 61.2374C22.4692 71.6573 20.948 82.3728 22.033 93.8728L22.0738 94.2932C23.4312 107.896 28.4287 122.012 37.6705 136.721L38.0149 137.266L32.4287 147.764C32.147 148.293 32.5912 148.899 33.2615 148.899H87.871L87.9237 148.897C88.5667 148.867 88.9804 148.275 88.7015 147.759L83.0271 137.263L83.3765 136.711C92.7199 121.841 97.7771 107.584 99.1489 93.8767C100.303 82.3417 98.8372 71.5923 95.2977 61.2385C92.1588 52.1026 86.9863 42.7627 81.0738 35.7404C74.4701 27.8972 67.3882 23.3828 60.6734 23.3828ZM60.6745 24.98C66.665 24.98 73.302 29.2108 79.5944 36.6843C85.3781 43.5536 90.4593 52.7288 93.5399 61.6946C97.0159 71.8628 98.4547 82.4125 97.3214 93.7373C95.9444 107.497 90.7852 121.839 81.1961 136.845L81.1674 136.894C81.0517 137.108 81.051 137.357 81.1678 137.573L86.4257 147.3H34.6991L39.8777 137.569C40.001 137.337 39.9896 137.068 39.8469 136.845C30.2678 121.855 25.1637 107.521 23.8636 93.7413C22.7983 82.4507 24.2916 71.9324 27.8091 61.6946C30.8897 52.7288 35.9709 43.5536 41.7546 36.6843C48.047 29.2108 54.684 24.98 60.6745 24.98Z" fill="#2E186A"/>
<path fill-rule="evenodd" clip-rule="evenodd" d="M60.6736 90.8674C69.1894 90.8674 76.0928 83.7133 76.0928 74.8883C76.0928 66.0633 69.1894 58.9092 60.6736 58.9092C52.1579 58.9092 45.2545 66.0633 45.2545 74.8883C45.2545 83.7133 52.1579 90.8674 60.6736 90.8674Z" fill="#5D21D1"/>
<path fill-rule="evenodd" clip-rule="evenodd" d="M60.6718 98.0584C62.0911 98.0584 63.2417 96.8661 63.2417 95.3952C63.2417 93.9244 62.0911 92.7321 60.6718 92.7321C59.2526 92.7321 58.102 93.9244 58.102 95.3952C58.102 96.8661 59.2526 98.0584 60.6718 98.0584Z" fill="#5D21D1"/>
<path fill-rule="evenodd" clip-rule="evenodd" d="M70.5842 98.0584C72.0035 98.0584 73.1541 96.8661 73.1541 95.3952C73.1541 93.9244 72.0035 92.7321 70.5842 92.7321C69.1649 92.7321 68.0144 93.9244 68.0144 95.3952C68.0144 96.8661 69.1649 98.0584 70.5842 98.0584Z" fill="#5D21D1"/>
<path fill-rule="evenodd" clip-rule="evenodd" d="M49.9952 98.0584C51.4145 98.0584 52.5651 96.8661 52.5651 95.3952C52.5651 93.9244 51.4145 92.7321 49.9952 92.7321C48.5759 92.7321 47.4254 93.9244 47.4254 95.3952C47.4254 96.8661 48.5759 98.0584 49.9952 98.0584Z" fill="#5D21D1"/>
<path fill-rule="evenodd" clip-rule="evenodd" d="M60.6727 85.3812C67.1102 85.3812 72.3288 79.9799 72.3288 73.317C72.3288 66.6541 67.1102 61.2528 60.6727 61.2528C54.2351 61.2528 49.0165 66.6541 49.0165 73.317C49.0165 79.9799 54.2351 85.3812 60.6727 85.3812Z" fill="white"/>
<path fill-rule="evenodd" clip-rule="evenodd" d="M60.6736 60.4535C53.6906 60.4535 48.0997 66.2402 48.0997 73.3167C48.0997 80.3931 53.6906 86.1798 60.6736 86.1798C67.6566 86.1798 73.2476 80.3931 73.2476 73.3167C73.2476 66.2402 67.6566 60.4535 60.6736 60.4535ZM60.6742 62.0514C66.5662 62.0514 71.4125 67.0674 71.4125 73.3167C71.4125 79.566 66.5662 84.582 60.6742 84.582C54.7822 84.582 49.9359 79.566 49.9359 73.3167C49.9359 67.0674 54.7822 62.0514 60.6742 62.0514Z" fill="#2E186A"/>
<path fill-rule="evenodd" clip-rule="evenodd" d="M63.395 23.729V4.84699C63.395 4.79373 63.395 4.74047 63.395 4.66057C63.7927 4.1812 64.0374 3.56867 64.0374 2.9295C64.0374 1.30496 62.5383 0 60.6721 0C58.8059 0 57.3068 1.30496 57.3068 2.9295C57.3068 3.56867 57.5516 4.1812 57.9493 4.66057C57.9493 4.71383 57.9493 4.7671 57.9493 4.84699V23.7023C52.2895 24.7143 46.6297 28.8423 41.4594 34.3817C47.3027 33.2099 54.1251 32.5707 61.9571 32.9436C68.963 33.2898 75.2041 34.142 80.6803 35.2872C75.3264 29.3216 69.3301 24.8475 63.395 23.729Z" fill="#5D21D1"/>
<path fill-rule="evenodd" clip-rule="evenodd" d="M85.7895 45.0877C79.0283 43.1169 71.2575 41.3859 60.8251 41.0397C50.1786 40.6934 42.1019 42.7707 35.4631 45.0344C32.5567 49.7216 30.2622 54.3556 28.396 59.3357C36.3503 55.9535 46.1096 52.3848 61.0699 52.6245C75.2959 52.8376 85.0858 55.5806 92.52 58.4569C90.715 53.7963 88.5123 49.5086 85.7895 45.0877Z" fill="#5D21D1"/>
<path fill-rule="evenodd" clip-rule="evenodd" d="M81.2007 137.1C82.1797 135.556 83.1281 134.038 84.0153 132.52C79.3345 130.868 72.6039 129.484 60.6419 129.59C48.5574 129.51 41.7962 130.922 37.1154 132.6C38.0026 134.091 38.9204 135.609 39.8688 137.127C39.8688 137.127 50.4848 135.316 60.6113 135.396C70.5848 135.316 81.2007 137.1 81.2007 137.1Z" fill="#5D21D1"/>
</svg>
