<svg width="554" height="500" viewBox="0 0 554 500" fill="none" xmlns="http://www.w3.org/2000/svg">
<circle cx="304" cy="250" r="250" fill="#2E186A" fill-opacity="0.8"/>
<path fill-rule="evenodd" clip-rule="evenodd" d="M511.729 276.818H246.271C241.432 276.818 237.481 272.868 237.481 268.029V109.228C237.481 104.389 241.432 100.438 246.271 100.438H511.729C516.569 100.438 520.519 104.389 520.519 109.228V268.078C520.469 272.868 516.569 276.818 511.729 276.818Z" fill="white"/>
<path fill-rule="evenodd" clip-rule="evenodd" d="M511.729 98.9569H246.271C240.614 98.9569 236 103.57 236 109.228V268.029C236 273.686 240.614 278.299 246.271 278.299H511.729C517.359 278.299 521.942 273.717 522 268.093L522 109.228C522 103.57 517.387 98.9569 511.729 98.9569ZM246.271 101.92H511.729C515.75 101.92 519.037 105.207 519.037 109.228V268.078C518.996 272.069 515.728 275.337 511.729 275.337H246.271C242.25 275.337 238.963 272.05 238.963 268.029V109.228C238.963 105.207 242.25 101.92 246.271 101.92Z" fill="#2E186A"/>
<path fill-rule="evenodd" clip-rule="evenodd" d="M516.202 101.096C516.848 100.594 517.779 100.71 518.281 101.356C518.764 101.977 518.675 102.861 518.093 103.375L518.021 103.434L385.094 206.833C381.503 209.626 376.698 209.668 373.07 206.958L372.906 206.833L239.979 103.434C239.333 102.932 239.217 102.001 239.719 101.356C240.202 100.735 241.081 100.603 241.722 101.041L241.798 101.096L374.725 204.494C377.254 206.461 380.576 206.497 383.134 204.602L383.275 204.494L516.202 101.096Z" fill="#2E186A"/>
<path fill-rule="evenodd" clip-rule="evenodd" d="M240.493 244.08L321.622 165.223L240.493 244.08Z" fill="white"/>
<path fill-rule="evenodd" clip-rule="evenodd" d="M320.589 164.161C321.176 163.59 322.114 163.604 322.684 164.19C323.232 164.753 323.241 165.64 322.722 166.215L322.654 166.285L241.526 245.142C240.939 245.713 240.001 245.699 239.431 245.113C238.883 244.549 238.874 243.663 239.393 243.088L239.461 243.018L320.589 164.161Z" fill="#2E186A"/>
<path fill-rule="evenodd" clip-rule="evenodd" d="M437.069 165.223L519.729 245.562L437.069 165.223Z" fill="white"/>
<path fill-rule="evenodd" clip-rule="evenodd" d="M436.007 164.19C436.554 163.627 437.441 163.592 438.03 164.095L438.102 164.16L520.761 244.499C521.348 245.069 521.361 246.007 520.791 246.594C520.244 247.157 519.357 247.192 518.768 246.689L518.696 246.624L436.037 166.285C435.45 165.715 435.437 164.777 436.007 164.19Z" fill="#2E186A"/>
<path fill-rule="evenodd" clip-rule="evenodd" d="M480.238 255.569L466.037 276.309L256.755 413.84C254.967 415.022 252.012 413.807 250.267 411.076L244.619 402.438C242.832 399.735 242.9 396.582 244.689 395.4L453.97 257.87L478.63 253.046C479.737 252.912 480.892 254.659 480.238 255.569Z" fill="#5D21D1"/>
<path fill-rule="evenodd" clip-rule="evenodd" d="M243.471 384.552L295.526 351.644C296.224 351.203 297.148 351.411 297.59 352.109C298.015 352.783 297.837 353.666 297.197 354.124L297.124 354.173L246.357 386.267L262.768 411.183C263.206 411.849 263.044 412.735 262.413 413.205L262.341 413.255C261.676 413.693 260.79 413.531 260.32 412.901L260.269 412.829L243.021 386.639C242.577 385.965 242.75 385.066 243.397 384.602L243.471 384.552Z" fill="#2E186A"/>
<path fill-rule="evenodd" clip-rule="evenodd" d="M326.611 352.256C327.3 351.801 328.228 351.99 328.683 352.679C329.123 353.344 328.962 354.23 328.332 354.701L328.26 354.752L281.176 385.868C280.487 386.323 279.559 386.134 279.104 385.445C278.665 384.78 278.825 383.894 279.455 383.423L279.527 383.372L326.611 352.256Z" fill="white"/>
<path fill-rule="evenodd" clip-rule="evenodd" d="M121.319 292.24L147.904 283.216C147.904 283.216 131.065 253.905 148.445 213.766C165.831 173.67 207.918 180.572 234.003 193.789C234.003 193.789 199.15 152.17 165.178 167.084C131.205 181.997 117.109 206.214 115.596 244.482C114.083 282.749 121.319 292.24 121.319 292.24Z" fill="white"/>
<path fill-rule="evenodd" clip-rule="evenodd" d="M164.66 165.904C130.962 180.697 115.877 204.769 114.31 244.431C113.441 266.397 115.262 280.843 118.49 289.345C118.913 290.462 119.329 291.371 119.721 292.092L119.841 292.308C120.034 292.647 120.188 292.881 120.295 293.021C120.63 293.461 121.209 293.638 121.733 293.46L148.318 284.436C149.086 284.175 149.425 283.278 149.021 282.574L148.905 282.363L148.843 282.247C148.712 281.999 148.565 281.71 148.405 281.38L148.323 281.211C147.767 280.055 147.18 278.694 146.59 277.136C143.977 270.243 142.203 262.084 141.908 252.892C141.511 240.521 143.869 227.576 149.627 214.278C157.455 196.226 170.791 186.839 188.093 185.066C202.357 183.605 218.779 187.519 233.421 194.938C234.649 195.56 235.848 194.088 235.036 193.018L234.931 192.891L234.648 192.562L234.432 192.316C234.244 192.103 234.037 191.872 233.812 191.623L233.674 191.471C232.613 190.305 231.38 189.015 229.988 187.636C226.014 183.698 221.558 179.831 216.719 176.317C208.963 170.684 200.974 166.507 192.92 164.3C183.231 161.645 173.84 161.963 164.97 165.77L164.66 165.904ZM192.24 166.784C199.96 168.9 207.682 172.937 215.205 178.401C219.93 181.832 224.288 185.615 228.175 189.465L228.513 189.802L228.167 189.654C214.845 183.995 200.564 181.199 187.831 182.504C169.619 184.369 155.469 194.329 147.263 213.254C141.351 226.908 138.924 240.231 139.333 252.974C139.638 262.467 141.472 270.903 144.181 278.049C144.757 279.569 145.332 280.915 145.884 282.081L146.073 282.477L121.891 290.686L121.838 290.584C121.543 290.01 121.226 289.296 120.898 288.431C117.807 280.287 116.028 266.177 116.883 244.532C118.414 205.82 132.938 182.643 165.696 168.263C174.084 164.581 182.979 164.247 192.24 166.784Z" fill="#2E186A"/>
<path fill-rule="evenodd" clip-rule="evenodd" d="M109.557 317.593C106.713 306.38 110.286 294.537 128.862 285.331C147.438 276.125 169.048 286.912 170.758 290.916C172.467 294.919 210.726 365.067 181.367 376.794C152.007 388.521 123.619 366.614 119.119 353.254C114.618 339.895 109.557 317.593 109.557 317.593Z" fill="white"/>
<path fill-rule="evenodd" clip-rule="evenodd" d="M155.813 284.417C162.597 286.166 168.67 289.542 169.547 291.363L169.637 291.559C170.046 292.425 172.058 296.453 172.69 297.744C174.797 302.049 176.782 306.312 178.729 310.808C182.007 318.375 184.784 325.714 186.896 332.678C193.826 355.54 192.637 370.905 180.889 375.598C167.857 380.803 154.038 379.568 141.498 373.28C131.055 368.044 122.622 359.62 120.339 352.843C119.171 349.374 117.898 345.102 116.553 340.204C115.268 335.526 113.984 330.519 112.753 325.484L112.3 323.618C111.958 322.203 111.642 320.871 111.354 319.643L110.813 317.308C107.696 305.013 113.11 294.575 129.434 286.485C137.447 282.514 146.727 282.075 155.813 284.417ZM108.209 317.506L108.332 318.012L108.76 319.864L109.114 321.369C109.39 322.533 109.687 323.777 110.005 325.084C111.315 330.481 112.691 335.869 114.069 340.886L114.461 342.303C115.674 346.655 116.827 350.484 117.899 353.666C120.422 361.157 129.339 370.065 140.344 375.583C153.507 382.183 168.084 383.486 181.845 377.99C189.096 375.093 192.876 368.755 193.581 359.659C194.167 352.082 192.63 342.712 189.361 331.931C187.219 324.863 184.408 317.435 181.093 309.784C179.28 305.597 177.435 301.613 175.492 297.612L174.689 295.972C173.785 294.141 172.059 290.682 171.943 290.41C170.76 287.64 164.031 283.875 156.457 281.923C146.813 279.437 136.91 279.905 128.29 284.177C111.095 292.699 105.009 304.185 108.209 317.506Z" fill="#2E186A"/>
<path fill-rule="evenodd" clip-rule="evenodd" d="M141.05 305.933C136.618 311.252 137.285 322.577 142.055 332.265C147.338 342.996 156.024 348.691 165.515 345.54C174.166 342.668 176.598 336.15 174.268 327.644C173.435 324.605 172.036 321.46 170.257 318.33C169.426 316.869 168.565 315.506 167.724 314.276L167.476 313.918C167.355 313.745 167.239 313.58 167.128 313.425L166.809 312.986L166.667 312.797L166.723 312.903C165.148 309.83 160.893 305.658 156.622 303.451C150.857 300.472 145.337 300.912 141.175 305.784L141.05 305.933ZM155.44 305.739C159.243 307.705 163.105 311.492 164.431 314.078C164.455 314.125 164.481 314.17 164.511 314.213L164.783 314.58L165.035 314.927C165.209 315.171 165.398 315.439 165.598 315.732C166.401 316.905 167.224 318.208 168.017 319.603C169.699 322.561 171.014 325.519 171.783 328.325C173.784 335.631 171.89 340.71 164.703 343.095C156.664 345.764 149.145 340.835 144.366 331.127C139.997 322.252 139.39 311.949 143.029 307.582C146.343 303.605 150.6 303.238 155.44 305.739Z" fill="#2E186A"/>
<path fill-rule="evenodd" clip-rule="evenodd" d="M246.376 260.148C235.199 255.785 210.508 251.562 197.962 258.677C185.417 265.793 162.668 282.113 164.754 337.688C166.84 393.264 230.538 375.117 230.538 375.117L246.376 260.148Z" fill="white"/>
<path fill-rule="evenodd" clip-rule="evenodd" d="M197.327 257.557C193.184 259.907 189.75 262.24 186.337 265.242C181.926 269.122 178.053 273.749 174.761 279.358C166.609 293.246 162.512 312.282 163.467 337.737C163.988 351.616 168.306 361.832 175.869 368.71C182.202 374.47 190.567 377.684 200.377 378.798C209.756 379.863 219.34 378.962 227.796 377.108L228.256 377.006C228.904 376.86 229.487 376.721 230.001 376.591L230.614 376.432L230.892 376.356C231.383 376.216 231.745 375.799 231.815 375.293L247.652 260.324C247.733 259.734 247.399 259.165 246.845 258.948C240.626 256.52 231.434 254.498 222.783 253.824C212.307 253.008 203.357 254.137 197.327 257.557ZM223.004 256.426C230.724 257.066 238.848 258.796 244.674 260.887L244.96 260.99L229.38 374.091L228.987 374.189C228.593 374.286 228.16 374.387 227.692 374.493C219.381 376.358 209.887 377.285 200.668 376.238C191.354 375.181 183.49 372.159 177.602 366.804C170.577 360.416 166.538 350.858 166.041 337.64C165.103 312.65 169.097 294.097 176.982 280.662C182.693 270.933 189.462 264.98 198.598 259.798C204.091 256.683 212.572 255.613 222.583 256.392L223.004 256.426Z" fill="#2E186A"/>
<path fill-rule="evenodd" clip-rule="evenodd" d="M262.327 265.727C262.511 261.318 263.009 251.311 263.009 251.311C263.733 238.668 264.397 226.814 262.232 215.198C257.762 191.292 239.368 172.185 221.344 165.78C182.179 151.816 159.868 163.083 159.868 163.083C85.7719 200.744 112.387 284.514 115.377 293.147C100.846 303.024 95.6999 314.487 99.025 329.015C101.084 336.915 105.712 376.243 127.213 384.487C148.672 392.736 168.051 386.667 179.978 377.386C151.241 387.721 125.986 363.493 121.516 350.347C117.016 336.987 112.318 316.889 112.318 316.889C110.008 307.853 112.722 297.567 125.354 288.661L125.17 287.993C125.17 287.993 125.17 287.993 125.213 287.987C125.152 287.866 125.127 287.696 125.066 287.575L124.876 286.865L124.84 286.913C121.095 274.572 113.192 241.967 124.922 213.409C139.906 176.785 162.571 171.54 162.571 171.54C205.31 158.738 228.234 203.955 231.016 229.971C233.5 253.342 221.258 260.76 218.754 262.035C215.384 262.134 212.163 263.253 209.441 265.123C200.128 268.211 187.621 291.72 181.445 314.309C181.451 314.352 181.506 314.431 181.512 314.473L181.33 314.716C178.453 325.373 177.02 335.82 178.004 343.79C177.199 352.583 181.221 361.153 188.385 366.273L192.383 364.825C192.119 365.991 191.751 367.042 191.292 368.063C192.465 368.674 193.717 369.23 195.036 369.645L217.804 377.054C227.824 380.327 238.564 374.819 241.704 364.775L242.156 363.408C252.113 363.263 263.555 351.536 269.193 334.795C275.102 317.234 272.591 300.245 263.78 294.844C263.586 289.926 262.355 282.643 262.252 272.679C262.216 270.342 262.272 268.034 262.327 265.727Z" fill="#FE7624"/>
<path fill-rule="evenodd" clip-rule="evenodd" d="M237.041 354.173C202.44 367.746 138.923 375.193 68.3028 372.87L68.0932 374.116C66.4037 370.847 63.1195 368.547 59.1722 368.253L40.2189 366.798C34.1643 366.333 28.8804 370.875 28.415 376.929L28.3322 377.852C27.8668 383.907 32.4087 389.191 38.4634 389.656L57.4167 391.111C60.4895 391.359 63.3286 390.296 65.4857 388.421L65.372 389.131C65.372 389.131 135.568 399.585 231.806 376.972C231.757 376.936 237.323 355.216 237.041 354.173Z" fill="#FE7624"/>
<path fill-rule="evenodd" clip-rule="evenodd" d="M230.195 348.073C237.75 345.539 242.2 349.143 243.867 356.376C244.406 358.713 244.616 361.242 244.597 363.745C244.593 364.267 244.579 364.753 244.557 365.196L244.535 365.604C244.522 365.811 244.51 365.966 244.501 366.062C244.436 366.77 243.809 367.291 243.1 367.226C242.417 367.163 241.908 366.577 241.931 365.901L241.96 365.497C241.965 365.427 241.97 365.352 241.974 365.272C241.999 364.811 242.017 364.292 242.021 363.725C242.039 361.407 241.844 359.068 241.357 356.955C240.049 351.28 237.145 348.745 231.703 350.301L231.488 350.364L231.43 350.466C227.945 356.531 220.536 360.769 210.31 363.561L209.989 363.648C203.134 365.489 195.702 366.52 188.604 366.963L187.94 367.002C187.181 367.046 186.476 367.078 185.831 367.102L185.115 367.125L184.432 367.139C183.721 367.146 183.139 366.575 183.132 365.863C183.125 365.177 183.656 364.612 184.332 364.566L185.182 364.546L185.473 364.537C186.345 364.508 187.341 364.461 188.444 364.392C195.385 363.959 202.656 362.95 209.321 361.16C219.405 358.452 226.506 354.339 229.464 348.696C229.618 348.402 229.88 348.179 230.195 348.073Z" fill="white"/>
<path fill-rule="evenodd" clip-rule="evenodd" d="M247.232 296.209C250.754 293.37 254.211 292.478 257.177 292.815C257.694 292.874 258.079 292.959 258.316 293.035C258.994 293.251 259.369 293.975 259.153 294.653C258.945 295.306 258.266 295.677 257.61 295.511L257.535 295.49C257.451 295.463 257.229 295.414 256.886 295.375C254.578 295.112 251.812 295.826 248.849 298.215C244.381 301.817 240.375 308.604 237.206 319.316C234.837 327.322 233.019 337.289 231.838 349.383C231.769 350.091 231.139 350.609 230.431 350.54C229.723 350.47 229.205 349.84 229.274 349.133C230.471 336.885 232.317 326.759 234.736 318.585C238.042 307.41 242.311 300.177 247.232 296.209Z" fill="white"/>
</svg>
